# MagicaVoxel @ Ephtracy

# group
o 

# material
mtllib missle.mtl
usemtl palette

# normals
vn -1 0 0
vn 1 0 0
vn 0 0 1
vn 0 0 -1
vn 0 -1 0
vn 0 1 0

# texcoords
vt 0.0136719 0.5
vt 0.845703 0.5
vt 0.978516 0.5

# verts
v -1 0.8 0.1
v -1 0.8 -0.2
v -1 1.1 0.1
v -1 1.1 -0.2
v -0.8 0.8 0.2
v -0.8 0.8 0.1
v -0.8 0.8 -0.2
v -0.8 0.8 -0.3
v -0.8 1.1 0.2
v -0.8 1.1 0.1
v -0.8 1.1 -0.2
v -0.8 1.1 -0.3
v -0.6 0.8 0.3
v -0.6 0.8 0.2
v -0.6 0.8 -0.3
v -0.6 0.8 -0.4
v -0.6 1.1 0.3
v -0.6 1.1 0.2
v -0.6 1.1 -0.3
v -0.6 1.1 -0.4
v 0.2 0.8 0.2
v 0.2 0.8 0.1
v 0.2 0.8 -0.2
v 0.2 0.8 -0.3
v 0.2 1.1 0.2
v 0.2 1.1 0.1
v 0.2 1.1 -0.2
v 0.2 1.1 -0.3
v 0.4 0.8 0.3
v 0.4 0.8 0.2
v 0.4 0.8 -0.3
v 0.4 0.8 -0.4
v 0.4 1.1 0.3
v 0.4 1.1 0.2
v 0.4 1.1 -0.3
v 0.4 1.1 -0.4
v -0.4 0.8 0.3
v -0.4 0.8 0.2
v -0.4 0.8 -0.3
v -0.4 0.8 -0.4
v -0.4 1.1 0.3
v -0.4 1.1 0.2
v -0.4 1.1 -0.3
v -0.4 1.1 -0.4
v -0.2 0.8 0.2
v -0.2 0.8 0.1
v -0.2 0.8 -0.2
v -0.2 0.8 -0.3
v -0.2 1.1 0.2
v -0.2 1.1 0.1
v -0.2 1.1 -0.2
v -0.2 1.1 -0.3
v 0.6 0.8 0.3
v 0.6 0.8 0.2
v 0.6 0.8 -0.3
v 0.6 0.8 -0.4
v 0.6 1.1 0.3
v 0.6 1.1 0.2
v 0.6 1.1 -0.3
v 0.6 1.1 -0.4
v 0.8 0.8 0.2
v 0.8 0.8 0.1
v 0.8 0.8 -0.2
v 0.8 0.8 -0.3
v 0.8 1.1 0.2
v 0.8 1.1 0.1
v 0.8 1.1 -0.2
v 0.8 1.1 -0.3
v 1 0.8 0.1
v 1 0.8 -0.2
v 1 1.1 0.1
v 1 1.1 -0.2
v -0.6 0.8 0.3
v -0.6 1.1 0.3
v -0.4 0.8 0.3
v -0.4 1.1 0.3
v 0.4 0.8 0.3
v 0.4 1.1 0.3
v 0.6 0.8 0.3
v 0.6 1.1 0.3
v -0.8 0.8 0.2
v -0.8 1.1 0.2
v -0.6 0.8 0.2
v -0.6 1.1 0.2
v -0.4 0.8 0.2
v -0.4 1.1 0.2
v -0.2 0.8 0.2
v -0.2 1.1 0.2
v 0.2 0.8 0.2
v 0.2 1.1 0.2
v 0.4 0.8 0.2
v 0.4 1.1 0.2
v 0.6 0.8 0.2
v 0.6 1.1 0.2
v 0.8 0.8 0.2
v 0.8 1.1 0.2
v -1 0.8 0.1
v -1 1.1 0.1
v -0.8 0.8 0.1
v -0.8 1.1 0.1
v -0.2 0.8 0.1
v -0.2 1.1 0.1
v 0.2 0.8 0.1
v 0.2 1.1 0.1
v 0.8 0.8 0.1
v 0.8 1.1 0.1
v 1 0.8 0.1
v 1 1.1 0.1
v -1 0.8 -0.2
v -1 1.1 -0.2
v -0.8 0.8 -0.2
v -0.8 1.1 -0.2
v -0.2 0.8 -0.2
v -0.2 1.1 -0.2
v 0.2 0.8 -0.2
v 0.2 1.1 -0.2
v 0.8 0.8 -0.2
v 0.8 1.1 -0.2
v 1 0.8 -0.2
v 1 1.1 -0.2
v -0.8 0.8 -0.3
v -0.8 1.1 -0.3
v -0.6 0.8 -0.3
v -0.6 1.1 -0.3
v -0.4 0.8 -0.3
v -0.4 1.1 -0.3
v -0.2 0.8 -0.3
v -0.2 1.1 -0.3
v 0.2 0.8 -0.3
v 0.2 1.1 -0.3
v 0.4 0.8 -0.3
v 0.4 1.1 -0.3
v 0.6 0.8 -0.3
v 0.6 1.1 -0.3
v 0.8 0.8 -0.3
v 0.8 1.1 -0.3
v -0.6 0.8 -0.4
v -0.6 1.1 -0.4
v -0.4 0.8 -0.4
v -0.4 1.1 -0.4
v 0.4 0.8 -0.4
v 0.4 1.1 -0.4
v 0.6 0.8 -0.4
v 0.6 1.1 -0.4
v -0.6 0.8 0.3
v -0.4 0.8 0.3
v 0.4 0.8 0.3
v 0.6 0.8 0.3
v -0.8 0.8 0.2
v -0.6 0.8 0.2
v -0.4 0.8 0.2
v -0.2 0.8 0.2
v 0.2 0.8 0.2
v 0.4 0.8 0.2
v 0.6 0.8 0.2
v 0.8 0.8 0.2
v -1 0.8 0.1
v -0.8 0.8 0.1
v -0.2 0.8 0.1
v 0.2 0.8 0.1
v 0.8 0.8 0.1
v 1 0.8 0.1
v -1 0.8 -0.2
v -0.8 0.8 -0.2
v -0.2 0.8 -0.2
v 0.2 0.8 -0.2
v 0.8 0.8 -0.2
v 1 0.8 -0.2
v -0.8 0.8 -0.3
v -0.6 0.8 -0.3
v -0.4 0.8 -0.3
v -0.2 0.8 -0.3
v 0.2 0.8 -0.3
v 0.4 0.8 -0.3
v 0.6 0.8 -0.3
v 0.8 0.8 -0.3
v -0.6 0.8 -0.4
v -0.4 0.8 -0.4
v 0.4 0.8 -0.4
v 0.6 0.8 -0.4
v -0.6 1.1 0.3
v -0.4 1.1 0.3
v 0.4 1.1 0.3
v 0.6 1.1 0.3
v -0.8 1.1 0.2
v -0.6 1.1 0.2
v -0.5 1.1 0.2
v -0.4 1.1 0.2
v -0.2 1.1 0.2
v 0.2 1.1 0.2
v 0.4 1.1 0.2
v 0.5 1.1 0.2
v 0.6 1.1 0.2
v 0.8 1.1 0.2
v -1 1.1 0.1
v -0.8 1.1 0.1
v -0.2 1.1 0.1
v 0.2 1.1 0.1
v 0.8 1.1 0.1
v 1 1.1 0.1
v -1 1.1 -0.2
v -0.8 1.1 -0.2
v -0.2 1.1 -0.2
v 0.2 1.1 -0.2
v 0.8 1.1 -0.2
v 1 1.1 -0.2
v -0.8 1.1 -0.3
v -0.6 1.1 -0.3
v -0.5 1.1 -0.3
v -0.4 1.1 -0.3
v -0.2 1.1 -0.3
v 0.2 1.1 -0.3
v 0.4 1.1 -0.3
v 0.5 1.1 -0.3
v 0.6 1.1 -0.3
v 0.8 1.1 -0.3
v -0.6 1.1 -0.4
v -0.4 1.1 -0.4
v 0.4 1.1 -0.4
v 0.6 1.1 -0.4

# faces
f 3/2/1 2/2/1 1/2/1
f 4/2/1 2/2/1 3/2/1
f 9/2/1 6/2/1 5/2/1
f 10/2/1 6/2/1 9/2/1
f 11/2/1 8/2/1 7/2/1
f 12/2/1 8/2/1 11/2/1
f 17/2/1 14/2/1 13/2/1
f 18/2/1 14/2/1 17/2/1
f 19/2/1 16/2/1 15/2/1
f 20/2/1 16/2/1 19/2/1
f 25/1/1 22/1/1 21/1/1
f 26/1/1 22/1/1 25/1/1
f 27/1/1 24/1/1 23/1/1
f 28/1/1 24/1/1 27/1/1
f 33/2/1 30/2/1 29/2/1
f 34/2/1 30/2/1 33/2/1
f 35/2/1 32/2/1 31/2/1
f 36/2/1 32/2/1 35/2/1
f 37/2/2 38/2/2 41/2/2
f 41/2/2 38/2/2 42/2/2
f 39/2/2 40/2/2 43/2/2
f 43/2/2 40/2/2 44/2/2
f 45/1/2 46/1/2 49/1/2
f 49/1/2 46/1/2 50/1/2
f 47/1/2 48/1/2 51/1/2
f 51/1/2 48/1/2 52/1/2
f 53/2/2 54/2/2 57/2/2
f 57/2/2 54/2/2 58/2/2
f 55/2/2 56/2/2 59/2/2
f 59/2/2 56/2/2 60/2/2
f 61/2/2 62/2/2 65/2/2
f 65/2/2 62/2/2 66/2/2
f 63/2/2 64/2/2 67/2/2
f 67/2/2 64/2/2 68/2/2
f 69/2/2 70/2/2 71/2/2
f 71/2/2 70/2/2 72/2/2
f 75/2/3 74/2/3 73/2/3
f 76/2/3 74/2/3 75/2/3
f 79/2/3 78/2/3 77/2/3
f 80/2/3 78/2/3 79/2/3
f 83/2/3 82/2/3 81/2/3
f 84/2/3 82/2/3 83/2/3
f 87/1/3 86/1/3 85/1/3
f 88/1/3 86/1/3 87/1/3
f 91/1/3 90/1/3 89/1/3
f 92/1/3 90/1/3 91/1/3
f 95/2/3 94/2/3 93/2/3
f 96/2/3 94/2/3 95/2/3
f 99/2/3 98/2/3 97/2/3
f 100/2/3 98/2/3 99/2/3
f 103/3/3 102/3/3 101/3/3
f 104/3/3 102/3/3 103/3/3
f 107/2/3 106/2/3 105/2/3
f 108/2/3 106/2/3 107/2/3
f 109/2/4 110/2/4 111/2/4
f 111/2/4 110/2/4 112/2/4
f 113/3/4 114/3/4 115/3/4
f 115/3/4 114/3/4 116/3/4
f 117/2/4 118/2/4 119/2/4
f 119/2/4 118/2/4 120/2/4
f 121/2/4 122/2/4 123/2/4
f 123/2/4 122/2/4 124/2/4
f 125/1/4 126/1/4 127/1/4
f 127/1/4 126/1/4 128/1/4
f 129/1/4 130/1/4 131/1/4
f 131/1/4 130/1/4 132/1/4
f 133/2/4 134/2/4 135/2/4
f 135/2/4 134/2/4 136/2/4
f 137/2/4 138/2/4 139/2/4
f 139/2/4 138/2/4 140/2/4
f 141/2/4 142/2/4 143/2/4
f 143/2/4 142/2/4 144/2/4
f 150/2/5 146/2/5 145/2/5
f 151/2/5 146/2/5 150/2/5
f 154/2/5 148/2/5 147/2/5
f 155/2/5 148/2/5 154/2/5
f 158/2/5 150/2/5 149/2/5
f 158/2/5 151/2/5 150/2/5
f 159/1/5 152/1/5 151/1/5
f 160/1/5 154/1/5 153/1/5
f 161/2/5 156/2/5 155/2/5
f 161/2/5 155/2/5 154/2/5
f 163/2/5 158/2/5 157/2/5
f 164/2/5 151/2/5 158/2/5
f 164/2/5 158/2/5 163/2/5
f 165/3/5 160/3/5 159/3/5
f 165/1/5 159/1/5 151/1/5
f 166/1/5 154/1/5 160/1/5
f 166/3/5 160/3/5 165/3/5
f 167/2/5 162/2/5 161/2/5
f 167/2/5 161/2/5 154/2/5
f 168/2/5 162/2/5 167/2/5
f 169/2/5 151/2/5 164/2/5
f 170/2/5 151/2/5 169/2/5
f 171/1/5 165/1/5 151/1/5
f 171/2/5 151/2/5 170/2/5
f 172/1/5 165/1/5 171/1/5
f 173/1/5 154/1/5 166/1/5
f 174/2/5 167/2/5 154/2/5
f 174/1/5 154/1/5 173/1/5
f 175/2/5 167/2/5 174/2/5
f 176/2/5 167/2/5 175/2/5
f 177/2/5 171/2/5 170/2/5
f 178/2/5 171/2/5 177/2/5
f 179/2/5 175/2/5 174/2/5
f 180/2/5 175/2/5 179/2/5
f 181/2/6 182/2/6 186/2/6
f 186/2/6 182/2/6 187/2/6
f 187/2/6 182/2/6 188/2/6
f 183/2/6 184/2/6 191/2/6
f 191/2/6 184/2/6 192/2/6
f 192/2/6 184/2/6 193/2/6
f 185/2/6 186/2/6 196/2/6
f 186/2/6 187/2/6 196/2/6
f 188/1/6 189/1/6 197/1/6
f 190/1/6 191/1/6 198/1/6
f 193/2/6 194/2/6 199/2/6
f 192/2/6 193/2/6 199/2/6
f 195/2/6 196/2/6 201/2/6
f 196/2/6 187/2/6 202/2/6
f 201/2/6 196/2/6 202/2/6
f 197/3/6 198/3/6 203/3/6
f 188/1/6 197/1/6 203/1/6
f 198/1/6 191/1/6 204/1/6
f 203/3/6 198/3/6 204/3/6
f 199/2/6 200/2/6 205/2/6
f 192/2/6 199/2/6 205/2/6
f 205/2/6 200/2/6 206/2/6
f 202/2/6 187/2/6 207/2/6
f 207/2/6 187/2/6 208/2/6
f 187/3/6 188/3/6 209/3/6
f 208/2/6 187/2/6 209/2/6
f 188/1/6 203/1/6 210/1/6
f 209/3/6 188/3/6 210/3/6
f 210/1/6 203/1/6 211/1/6
f 204/1/6 191/1/6 212/1/6
f 191/3/6 192/3/6 213/3/6
f 212/1/6 191/1/6 213/1/6
f 192/2/6 205/2/6 214/2/6
f 213/3/6 192/3/6 214/3/6
f 214/2/6 205/2/6 215/2/6
f 215/2/6 205/2/6 216/2/6
f 208/2/6 209/2/6 217/2/6
f 209/2/6 210/2/6 217/2/6
f 217/2/6 210/2/6 218/2/6
f 214/2/6 215/2/6 219/2/6
f 213/2/6 214/2/6 219/2/6
f 219/2/6 215/2/6 220/2/6
